<svg width="50" height="51" viewBox="0 0 50 51" fill="none" xmlns="http://www.w3.org/2000/svg">
<rect x="1.5" y="2.48682" width="47" height="47" rx="11.5" fill="#F4D35E" stroke="white" stroke-width="3"/>
<path d="M27.517 32.6426C26.4521 33.8148 24.5784 33.826 23.4994 32.6667C23.0174 32.1489 23.3918 31.3194 24.1093 31.3151L26.8907 31.2984C27.6083 31.2941 27.9926 32.1191 27.517 32.6426Z" fill="white"/>
<path fill-rule="evenodd" clip-rule="evenodd" d="M30.1366 31.2029C29.575 31.6393 28.7819 31.4951 28.3065 30.9685L26.7961 29.2953C26.1873 28.6209 25.1188 28.6209 24.5101 29.2953L22.8753 31.1061C22.4119 31.6195 21.6447 31.7718 21.0819 31.3664C19.2137 30.0206 18 27.8433 18 25.3864C18 21.2997 21.3579 17.9868 25.5 17.9868C29.6421 17.9868 33 21.2997 33 25.3864C33 27.7462 31.8803 29.848 30.1366 31.2029ZM23.2358 26.2153L24.6533 27.8703C25.1036 28.396 25.8964 28.396 26.3467 27.8703L27.7642 26.2153C28.2193 25.684 27.9846 24.8432 27.326 24.6449C26.1334 24.2859 24.8666 24.2859 23.674 24.6449C23.0154 24.8432 22.7807 25.684 23.2358 26.2153ZM23.2779 22.709C23.2779 23.3226 22.7804 23.8201 22.1668 23.8201C21.5531 23.8201 21.0557 23.3226 21.0557 22.709C21.0557 22.0953 21.5531 21.5979 22.1668 21.5979C22.7804 21.5979 23.2779 22.0953 23.2779 22.709ZM28.8334 23.8201C29.4471 23.8201 29.9446 23.3226 29.9446 22.709C29.9446 22.0953 29.4471 21.5979 28.8334 21.5979C28.2198 21.5979 27.7223 22.0953 27.7223 22.709C27.7223 23.3226 28.2198 23.8201 28.8334 23.8201Z" fill="white"/>
</svg>
